<?xml version="1.0" encoding="UTF-8"?>
<svg id="Layer_2" data-name="Layer 2" xmlns="http://www.w3.org/2000/svg" viewBox="0 0 100 100">
  <defs>
    <style>
      .cls-1 {
        fill: #262626;
      }

      .cls-2 {
        fill: #faf285;
      }

      .cls-3 {
        fill: #feea81;
      }
    </style>
  </defs>
  <g id="Circle2">
    <g>
      <circle class="cls-1" cx="50" cy="50" r="50"/>
      <path class="cls-3" d="M50,3c25.92,0,47,21.08,47,47s-21.08,47-47,47S3,75.92,3,50,24.08,3,50,3M50,0C22.39,0,0,22.39,0,50s22.39,50,50,50,50-22.39,50-50S77.61,0,50,0h0Z"/>
    </g>
  </g>
  <g id="_2" data-name="2">
    <path class="cls-2" d="M51.37,74.18c-.66-3.42-1.97-5.99-3.91-7.64-.69-.59-1.48-1.09-2.25-1.57-1.84-1.16-3.75-2.36-4.46-4.84-.22-.78-.29-1.62-.21-2.49.08-.87.53-1.67,1.24-2.19l2.77-2.01,1.77,2.42-2.77,2.01c-.06.54-.03,1.01.09,1.43.38,1.3,1.45,2.04,3.18,3.13.86.54,1.75,1.1,2.6,1.83,2.47,2.11,4.12,5.26,4.91,9.36l-2.95.57Z"/>
    <path class="cls-2" d="M46.3,55.86l-1.76-2.43,8.29-6c.94-1.36.89-3.23-.15-4.52-1-1.24-2.68-1.72-4.2-1.19-.13.04-.24.09-.36.14l-5.56,4.05c-2.43,1.77-4.85,3.54-7.28,5.3l-.56-.77h-1.82v-1.2l.62-.45c2.43-1.76,4.85-3.53,7.27-5.3l5.92-4.28c.27-.13.54-.24.8-.33,2.69-.93,5.71-.07,7.5,2.15,1.97,2.45,2,5.9.07,8.4l-.13.17-8.66,6.27Z"/>
    <path class="cls-2" d="M50.87,84.87c-4.13,0-13.26-.97-19.7-8.77-5.57-6.76-5.73-14.56-5.33-18.6.21-2.14,1.33-4.09,3.08-5.37l2.28-1.66c.77-.56,1.55-1.12,2.32-1.69l1.77,2.42c-.77.57-1.55,1.13-2.33,1.7l-2.27,1.65c-1.06.77-1.74,1.95-1.86,3.24-.35,3.58-.22,10.48,4.65,16.4,6.35,7.69,15.79,7.8,18.53,7.65,12.93-.73,20.5-13.45,22.94-20.85,2.83-8.6.54-16.01-.56-19.57l-.06-.2,2.87-.88.06.2c1.1,3.56,3.66,11.89.54,21.39-2.67,8.12-11.08,22.09-25.62,22.91-.35.02-.79.03-1.31.03Z"/>
    <path class="cls-2" d="M32.9,52.94V17.01c0-3.69,3.01-6.7,6.7-6.7,1.79,0,3.48.7,4.74,1.96,1.26,1.26,1.96,2.95,1.96,4.74v26.17l-3.74,2.73c-2.43,1.77-4.85,3.54-7.28,5.3l-2.38,1.73ZM39.61,13.31c-2.04,0-3.7,1.66-3.7,3.7v30.04c1.63-1.19,3.26-2.38,4.89-3.57l2.51-1.83v-24.65c0-.99-.38-1.92-1.08-2.62s-1.63-1.08-2.62-1.08Z"/>
    <path class="cls-2" d="M49.48,58.11c-.76,0-1.53-.13-2.28-.4-1.16-.42-2.18-1.15-2.95-2.13l-.98-1.23,9.56-6.92c.94-1.36.89-3.23-.15-4.52-1-1.24-2.69-1.72-4.2-1.19l-2.98,1.04,9.1-25.05c1.26-3.47,5.11-5.27,8.58-4.01,2.64.96,4.41,3.49,4.41,6.29,0,.78-.13,1.54-.4,2.28l-5.93,16.34-1.02.03c-2,.06-3.56,1.68-3.56,3.68v8.12c0,.1,0,.2.02.3l.02.32-.11.32-.84,2.33c-.99,2.72-3.57,4.41-6.31,4.41ZM47.86,54.74c.12.06.24.11.36.15,1.92.7,4.04-.3,4.74-2.21l.73-2.04s0-.09,0-.13l-5.83,4.22ZM50.24,38.53c1.4.1,2.75.64,3.84,1.54.78-2.2,2.68-3.87,5.03-4.31l5.26-14.51c.15-.41.22-.84.22-1.27,0-1.54-.98-2.94-2.43-3.47-1.91-.69-4.04.3-4.74,2.21l-7.19,19.8Z"/>
    <path class="cls-2" d="M60.4,57.14c-3.47,0-6.4-2.71-6.68-6.16-.01-.2-.02-.37-.02-.54v-8.12c0-3.61,2.81-6.53,6.4-6.68.1,0,.21-.01.3-.01,1.79,0,3.47.7,4.73,1.96,1.26,1.26,1.96,2.94,1.96,4.73v8.12c0,3.69-3,6.7-6.69,6.7ZM60.25,38.64c-2,.06-3.56,1.68-3.56,3.68v8.12c0,.1,0,.2.02.3.15,1.91,1.77,3.4,3.69,3.4,2.03,0,3.69-1.66,3.69-3.7v-8.12c0-.99-.38-1.91-1.08-2.61s-1.62-1.08-2.61-1.08l-.1.02h-.04Z"/>
    <path class="cls-2" d="M70.78,57.14c-3.69,0-6.7-3.01-6.7-6.7v-8.12c0-3.69,3.01-6.69,6.7-6.69,1.79,0,3.48.7,4.74,1.96,1.26,1.26,1.96,2.94,1.96,4.73v8.12c0,3.69-3.01,6.7-6.7,6.7ZM70.78,38.63c-2.04,0-3.7,1.66-3.7,3.69v8.12c0,2.04,1.66,3.7,3.7,3.7s3.7-1.66,3.7-3.7v-8.12c0-.99-.38-1.91-1.08-2.61s-1.63-1.08-2.62-1.08Z"/>
  </g>
</svg>