<?xml version="1.0" encoding="UTF-8"?>
<svg id="Layer_2" data-name="Layer 2" xmlns="http://www.w3.org/2000/svg" viewBox="0 0 100 100">
  <defs>
    <style>
      .cls-1 {
        fill: #262626;
      }

      .cls-2 {
        fill: #faf285;
      }

      .cls-3 {
        fill: #feea81;
      }
    </style>
  </defs>
  <g id="Circle3">
    <g>
      <circle class="cls-1" cx="50" cy="50" r="50"/>
      <path class="cls-3" d="M50,3c25.92,0,47,21.08,47,47s-21.08,47-47,47S3,75.92,3,50,24.08,3,50,3M50,0C22.39,0,0,22.39,0,50s22.39,50,50,50,50-22.39,50-50S77.61,0,50,0h0Z"/>
    </g>
  </g>
  <g id="_3" data-name="3">
    <path class="cls-2" d="M51.37,74.18c-.66-3.42-1.97-5.99-3.91-7.64-.69-.59-1.48-1.09-2.25-1.57-1.84-1.16-3.75-2.36-4.46-4.84-.22-.78-.29-1.62-.21-2.49.08-.87.53-1.67,1.24-2.19l3.6-2.61,1.76,2.43-3.6,2.61c-.06.54-.02,1.01.09,1.43.38,1.3,1.45,2.04,3.18,3.13.86.54,1.75,1.1,2.6,1.83,2.47,2.11,4.12,5.26,4.91,9.36l-2.95.57Z"/>
    <path class="cls-2" d="M50.87,84.87c-4.13,0-13.26-.97-19.7-8.77-5.57-6.76-5.73-14.56-5.33-18.6.21-2.14,1.33-4.09,3.08-5.37,1.5-1.09,3-2.18,4.5-3.28l1.77,2.42c-1.5,1.1-3,2.19-4.51,3.28-1.05.77-1.73,1.95-1.86,3.23-.35,3.58-.22,10.48,4.65,16.4,6.35,7.69,15.79,7.8,18.53,7.65,12.93-.73,20.5-13.45,22.94-20.85,2.83-8.6.54-16.01-.56-19.57l-.06-.2,2.87-.88.06.2c1.1,3.56,3.66,11.89.54,21.39-2.67,8.12-11.08,22.09-25.62,22.91-.35.02-.79.03-1.31.03Z"/>
    <path class="cls-2" d="M47.14,55.26l-1.76-2.43,7.46-5.4c.94-1.36.89-3.23-.15-4.52-1.08-1.35-2.98-1.78-4.55-1.06l-12.95,9.43-1.76-2.43,13.27-9.64c2.84-1.42,6.35-.66,8.33,1.81,1.97,2.45,2,5.9.07,8.4l-.13.17-7.82,5.67Z"/>
    <path class="cls-2" d="M70.78,57.14c-3.56,0-6.54-2.87-6.69-6.41-.01-.1-.01-.19-.01-.29v-8.12c0-2.13,1.03-4.16,2.76-5.41,1.13-.84,2.5-1.28,3.94-1.28,1.79,0,3.48.7,4.74,1.96,1.26,1.26,1.96,2.94,1.96,4.73v8.12c0,3.69-3.01,6.7-6.7,6.7ZM70.78,38.63c-.79,0-1.54.24-2.17.71-.98.71-1.53,1.79-1.53,2.98v8.25c.07,1.97,1.72,3.57,3.7,3.57s3.7-1.66,3.7-3.7v-8.12c0-.99-.38-1.91-1.08-2.61s-1.63-1.08-2.62-1.08Z"/>
    <path class="cls-2" d="M60.42,56.9c-.38,0-.77-.03-1.16-.1-3.22-.55-5.56-3.32-5.56-6.6,0-.39.03-.77.09-1.12l5.64-32.96c.3-1.76,1.27-3.3,2.73-4.34,1.46-1.03,3.24-1.44,5-1.14,3.23.56,5.57,3.33,5.57,6.59,0,.35-.03.74-.1,1.14l-3.52,20.62-.5.36c-.96.7-1.52,1.78-1.52,2.97l.04,8.37-.05.18-.08.47c-.3,1.76-1.27,3.3-2.73,4.34-1.14.81-2.48,1.23-3.85,1.23ZM66.03,13.55c-.76,0-1.5.23-2.13.68-.81.57-1.34,1.42-1.51,2.39l-5.64,32.96c-.03.18-.05.4-.05.62,0,1.81,1.29,3.34,3.07,3.64.98.17,1.96-.05,2.77-.62.81-.57,1.34-1.42,1.5-2.39l.05-.29s0-.06,0-.09v-8.12c0-1.92.83-3.74,2.26-5l3.32-19.45c.04-.23.06-.45.06-.64,0-1.79-1.29-3.32-3.08-3.63-.21-.04-.42-.05-.62-.05Z"/>
    <path class="cls-2" d="M50,57.14c-1.83,0-3.54-.73-4.82-2.05l-1.2-1.24,8.86-6.42c.94-1.36.89-3.23-.15-4.52-1.08-1.35-2.98-1.78-4.55-1.06l-4.83,3.52v-28.36c0-3.69,3-6.7,6.69-6.7,1.78,0,3.46.69,4.73,1.95,1.27,1.27,1.97,2.95,1.97,4.75v33.43c0,3.69-3.01,6.7-6.7,6.7ZM48.91,53.98c.35.11.71.16,1.08.16,2.02,0,3.66-1.62,3.7-3.63l-4.78,3.46ZM49.72,38.51c1.42,0,2.81.44,3.98,1.27v-22.77c0-.99-.38-1.92-1.08-2.62-.7-.69-1.63-1.08-2.62-1.08-2.03,0-3.69,1.66-3.69,3.7v22.47l.39-.26c.96-.48,2-.71,3.02-.71Z"/>
    <path class="cls-2" d="M33.24,52.7l-6.05-34.28c-.31-1.76.08-3.53,1.1-5,1.02-1.47,2.56-2.45,4.32-2.76.44-.07.81-.1,1.17-.1,3.24,0,6.01,2.33,6.59,5.54l4.92,27.83-12.06,8.77ZM33.8,13.56c-.2,0-.42.02-.67.06-.95.17-1.8.71-2.36,1.52-.56.81-.78,1.79-.61,2.76l5.21,29.55,6.66-4.85-4.6-25.98c-.32-1.77-1.84-3.06-3.63-3.06Z"/>
  </g>
</svg>