<?xml version="1.0" encoding="UTF-8"?>
<svg id="Layer_2" data-name="Layer 2" xmlns="http://www.w3.org/2000/svg" viewBox="0 0 100 100">
  <defs>
    <style>
      .cls-1 {
        fill: #262626;
      }

      .cls-2 {
        fill: #f37f81;
      }
    </style>
  </defs>
  <g id="CircleFist">
    <path class="cls-2" d="M50,3c25.92,0,47,21.08,47,47s-21.08,47-47,47S3,75.92,3,50,24.08,3,50,3M50,0C22.39,0,0,22.39,0,50s22.39,50,50,50,50-22.39,50-50S77.61,0,50,0h0Z"/>
    <g>
      <circle class="cls-1" cx="50" cy="50" r="50"/>
      <path class="cls-2" d="M50,3c25.92,0,47,21.08,47,47s-21.08,47-47,47S3,75.92,3,50,24.08,3,50,3M50,0C22.39,0,0,22.39,0,50s22.39,50,50,50,50-22.39,50-50S77.61,0,50,0h0Z"/>
    </g>
  </g>
  <g id="Fist">
    <path class="cls-2" d="M48.36,79.62c-4.13,0-13.26-.97-19.7-8.77-5.56-6.75-5.73-14.55-5.33-18.6.21-2.14,1.33-4.09,3.08-5.36.77-.56,1.55-1.13,2.32-1.69.76-.55,1.52-1.1,2.27-1.65l1.77,2.42c-.76.56-1.52,1.11-2.28,1.66-.77.56-1.55,1.12-2.32,1.69-1.06.77-1.74,1.95-1.86,3.24-.35,3.58-.22,10.48,4.66,16.4,6.35,7.69,15.79,7.8,18.53,7.65,12.93-.73,20.5-13.45,22.94-20.85,2.83-8.6.54-16.01-.56-19.57l-.06-.2,2.87-.88.06.2c1.1,3.56,3.66,11.89.54,21.39-2.67,8.12-11.08,22.09-25.62,22.91-.35.02-.79.03-1.31.03Z"/>
    <path class="cls-2" d="M47.49,51.89c-1.83,0-3.54-.73-4.82-2.05l-1.2-1.24,8.86-6.42c.94-1.36.89-3.23-.15-4.52-1.08-1.35-2.97-1.78-4.55-1.06l-4.83,3.52v-3.05c0-3.69,3-6.69,6.69-6.69,1.78,0,3.46.69,4.73,1.95,1.27,1.27,1.97,2.95,1.97,4.74v8.12c0,3.69-3.01,6.7-6.7,6.7ZM46.41,48.73c.35.11.71.16,1.08.16,2.02,0,3.66-1.62,3.7-3.63l-4.78,3.46Z"/>
    <path class="cls-2" d="M44.63,50.01l-1.76-2.43,7.46-5.4c.94-1.36.89-3.23-.15-4.52-1.08-1.35-2.97-1.78-4.55-1.06l-5.72,4.16c-2.38,1.73-4.75,3.47-7.13,5.2l-.56-.77h-1.82v-1.2l.62-.45c2.38-1.73,4.75-3.46,7.13-5.19l6.05-4.38c2.85-1.42,6.35-.65,8.33,1.81,1.97,2.45,2,5.9.07,8.4l-.13.17-7.83,5.67Z"/>
    <path class="cls-2" d="M48.87,68.93c-.66-3.42-1.98-5.99-3.91-7.64-.69-.59-1.48-1.09-2.25-1.57-1.84-1.16-3.75-2.36-4.46-4.84-.22-.78-.29-1.62-.21-2.49.08-.88.53-1.68,1.25-2.19l3.6-2.61,1.76,2.43-3.6,2.61c-.06.54-.03,1.01.09,1.43.38,1.3,1.45,2.04,3.18,3.12.86.54,1.75,1.1,2.6,1.83,2.47,2.11,4.12,5.26,4.91,9.36l-2.95.57Z"/>
    <path class="cls-2" d="M68.28,51.89c-3.69,0-6.7-3-6.7-6.7v-8.12c0-3.69,3-6.7,6.7-6.7s6.7,3,6.7,6.7v8.12c0,3.69-3,6.7-6.7,6.7ZM68.28,33.37c-2.04,0-3.7,1.66-3.7,3.7v8.12c0,2.04,1.66,3.7,3.7,3.7s3.7-1.66,3.7-3.7v-8.12c0-2.04-1.66-3.7-3.7-3.7Z"/>
    <path class="cls-2" d="M30.4,47.69v-10.62c0-3.69,3.01-6.69,6.7-6.69,1.79,0,3.48.7,4.74,1.96,1.26,1.26,1.96,2.94,1.96,4.73v.86l-3.89,2.83c-2.38,1.73-4.75,3.47-7.13,5.2l-2.38,1.73ZM37.1,33.38c-2.04,0-3.7,1.66-3.7,3.69v4.73c1.58-1.15,3.16-2.31,4.74-3.46l2.6-1.9c-.13-.75-.48-1.44-1.03-1.98-.7-.7-1.63-1.08-2.62-1.08Z"/>
    <path class="cls-2" d="M57.89,51.89c-3.69,0-6.7-3.01-6.7-6.7v-8.12c0-3.69,3.01-6.69,6.7-6.69,1.79,0,3.47.7,4.73,1.96,1.26,1.26,1.96,2.94,1.96,4.73v8.12c0,3.69-3,6.7-6.69,6.7ZM57.89,33.38c-2.04,0-3.7,1.66-3.7,3.69v8.12c0,2.04,1.66,3.7,3.7,3.7s3.69-1.66,3.69-3.7v-8.12c0-.99-.38-1.91-1.08-2.61s-1.62-1.08-2.61-1.08Z"/>
  </g>
</svg>