<?xml version="1.0" encoding="UTF-8"?>
<svg id="Layer_2" data-name="Layer 2" xmlns="http://www.w3.org/2000/svg" viewBox="0 0 100 100">
  <defs>
    <style>
      .cls-1 {
        fill: #262626;
      }

      .cls-2 {
        fill: #7a7bbb;
      }

      .cls-3 {
        fill: #797cbb;
        stroke: #7a7bbb;
        stroke-miterlimit: 10;
      }
    </style>
  </defs>
  <g id="CirclePoint">
    <g>
      <circle class="cls-1" cx="50" cy="50" r="50"/>
      <path class="cls-2" d="M50,3c25.92,0,47,21.08,47,47s-21.08,47-47,47S3,75.92,3,50,24.08,3,50,3h0ZM50,0C22.39,0,0,22.39,0,50s22.39,50,50,50,50-22.39,50-50S77.61,0,50,0h0Z"/>
    </g>
  </g>
  <g id="Point">
    <path class="cls-3" d="M78.47,46.01h-33.43v-3h33.43c.99,0,1.92-.38,2.62-1.08s1.08-1.63,1.08-2.62c0-2.04-1.66-3.7-3.7-3.7h-33.43c-.34,0-.71.05-1.08.16l-.8-2.89c.63-.18,1.27-.27,1.88-.27h33.43c3.69,0,6.7,3.01,6.7,6.7,0,1.79-.7,3.48-1.96,4.74-1.26,1.26-2.95,1.96-4.74,1.96Z"/>
    <path class="cls-3" d="M43.04,79.02c-2.9,0-6.1-.4-9.49-1.52-10.9-3.59-22.22-12.9-22.91-25.63-.06-1.1-.04-2.22.05-3.32.75-8.69,6.35-16.33,14.63-19.93,5.3-2.31,10.82-4.92,16.16-7.44,2.97-1.41,5.94-2.81,8.9-4.18,2.75-1.2,6.21-1.87,8.84,3.51,2.72,5.57-.96,7.84-3.4,9.35l-.23.14-11.36,5.67c-.74.37-1.64.07-2.01-.67-.37-.74-.07-1.64.67-2.01l11.36-5.67c2.64-1.63,3.75-2.48,2.28-5.48-1.59-3.26-2.92-2.96-4.92-2.09-2.92,1.35-5.88,2.75-8.84,4.15-5.36,2.54-10.9,5.16-16.25,7.48-7.26,3.16-12.18,9.84-12.84,17.44-.08.96-.1,1.94-.05,2.9.71,12.93,13.44,20.5,20.85,22.94,8.56,2.82,15.97.54,19.53-.55l.23-.07c.79-.24,1.63.2,1.87,1,.24.79-.2,1.63-1,1.87l-.23.07c-2.48.76-6.67,2.05-11.86,2.05Z"/>
    <path class="cls-3" d="M53.15,77.19h-8.12c-3.69,0-6.7-3-6.7-6.7s3-6.7,6.7-6.7h8.12c3.69,0,6.7,3,6.7,6.7s-3,6.7-6.7,6.7ZM45.03,66.79c-2.04,0-3.7,1.66-3.7,3.7s1.66,3.7,3.7,3.7h8.12c2.04,0,3.7-1.66,3.7-3.7s-1.66-3.7-3.7-3.7h-8.12Z"/>
    <path class="cls-3" d="M53.15,66.79h-8.12c-3.69,0-6.7-3-6.7-6.7s3-6.7,6.7-6.7h8.12c3.69,0,6.7,3,6.7,6.7s-3,6.7-6.7,6.7ZM45.04,56.4c-2.04,0-3.7,1.66-3.7,3.7s1.66,3.7,3.7,3.7h8.12c2.04,0,3.7-1.66,3.7-3.7s-1.66-3.7-3.7-3.7h-8.12Z"/>
    <path class="cls-3" d="M53.16,56.4h-8.12c-3.69,0-6.7-3.01-6.7-6.7s3.01-6.69,6.7-6.69h8.12c3.69,0,6.69,3,6.69,6.69,0,1.78-.69,3.46-1.95,4.73-1.27,1.27-2.95,1.96-4.74,1.96ZM45.04,46.01c-2.04,0-3.7,1.66-3.7,3.69s1.66,3.7,3.7,3.7h8.12c.99,0,1.91-.38,2.61-1.08.7-.7,1.08-1.63,1.08-2.62,0-2.03-1.66-3.69-3.69-3.69h-8.12Z"/>
  </g>
</svg>