<svg width="80" height="80" viewBox="0 0 80 80" fill="none" xmlns="http://www.w3.org/2000/svg">
<path d="M40 80C62.0914 80 80 62.0914 80 40C80 17.9086 62.0914 0 40 0C17.9086 0 0 17.9086 0 40C0 62.0914 17.9086 80 40 80Z" fill="#262626"/>
<path d="M40 2.4C60.736 2.4 77.6 19.264 77.6 40C77.6 60.736 60.736 77.6 40 77.6C19.264 77.6 2.4 60.736 2.4 40C2.4 19.264 19.264 2.4 40 2.4ZM40 0C17.912 0 0 17.912 0 40C0 62.088 17.912 80 40 80C62.088 80 80 62.088 80 40C80 17.912 62.088 0 40 0Z" fill="#FAF285"/>
<path d="M37.712 44.208L36.304 42.264L42.272 37.944C43.024 36.856 42.984 35.36 42.152 34.328C41.288 33.248 39.768 32.904 38.512 33.48L34.056 36.728C32.112 38.144 30.176 39.56 28.232 40.968L26.824 39.024C28.768 37.616 30.704 36.2 32.64 34.784L37.36 31.368C39.632 30.232 42.44 30.84 44.024 32.816C45.6 34.776 45.624 37.536 44.08 39.536L43.976 39.672L37.72 44.208H37.712Z" fill="#FAF285"/>
<path d="M41.0961 59.344C40.5681 56.608 39.5201 54.552 37.9681 53.232C37.4161 52.76 36.7841 52.36 36.1681 51.976C34.6961 51.048 33.1681 50.088 32.6001 48.104C32.4241 47.48 32.3681 46.808 32.4321 46.112C32.4961 45.416 32.8561 44.776 33.4241 44.36L36.3041 42.272L37.7121 44.216L34.8321 46.304C34.7841 46.736 34.8161 47.112 34.9041 47.448C35.2081 48.488 36.0641 49.08 37.4481 49.952C38.1361 50.384 38.8481 50.832 39.5281 51.416C41.5041 53.104 42.8241 55.624 43.4561 58.904L41.0961 59.36V59.344Z" fill="#FAF285"/>
<path d="M40.696 67.896C37.392 67.896 30.088 67.12 24.936 60.88C20.48 55.472 20.352 49.232 20.672 46C20.84 44.288 21.736 42.728 23.136 41.704L24.96 40.376C25.576 39.928 26.2 39.48 26.816 39.024L28.232 40.96C27.616 41.416 26.992 41.864 26.368 42.32L24.552 43.64C23.704 44.256 23.16 45.2 23.064 46.232C22.784 49.096 22.888 54.616 26.784 59.352C31.864 65.504 39.416 65.592 41.608 65.472C51.952 64.888 58.008 54.712 59.96 48.792C62.224 41.912 60.392 35.984 59.512 33.136L59.464 32.976L61.76 32.272L61.808 32.432C62.688 35.28 64.736 41.944 62.24 49.544C60.104 56.04 53.376 67.216 41.744 67.872C41.464 67.888 41.112 67.896 40.696 67.896Z" fill="#FAF285"/>
<path d="M26.3198 42.352V13.608C26.3198 10.656 28.7278 8.24805 31.6798 8.24805C33.1118 8.24805 34.4638 8.80805 35.4718 9.81605C36.4798 10.824 37.0398 12.176 37.0398 13.608V34.544L34.0478 36.728C32.1038 38.144 30.1678 39.56 28.2238 40.968L26.3198 42.352ZM31.6878 10.648C30.0558 10.648 28.7278 11.976 28.7278 13.608V37.64C30.0318 36.688 31.3358 35.736 32.6398 34.784L34.6478 33.32V13.6C34.6478 12.808 34.3438 12.064 33.7838 11.504C33.2238 10.944 32.4798 10.64 31.6878 10.64V10.648Z" fill="#FAF285"/>
<path d="M39.9999 45.7121C38.5359 45.7121 37.1679 45.1281 36.1439 44.0722L35.1839 43.0801L42.2719 37.9441C43.0239 36.8561 42.9839 35.3601 42.1519 34.3281C41.2879 33.2481 39.7679 32.9041 38.5119 33.4801L34.6479 36.2961V33.8561C34.6479 30.9041 37.0479 28.5042 39.9999 28.5042C41.4239 28.5042 42.7679 29.0562 43.7839 30.0642C44.7999 31.0802 45.3599 32.4241 45.3599 33.8561V40.3521C45.3599 43.3041 42.9519 45.7121 39.9999 45.7121ZM39.1279 43.1841C39.4079 43.2721 39.6959 43.3121 39.9919 43.3121C41.6079 43.3121 42.9199 42.0161 42.9519 40.4081L39.1279 43.1762V43.1841Z" fill="#FAF285"/>
<path d="M48.3119 45.7121C45.3599 45.7121 42.9519 43.3121 42.9519 40.3521V33.8561C42.9519 30.9041 45.3519 28.4961 48.3119 28.4961C51.2719 28.4961 53.6719 30.8961 53.6719 33.8561V40.3521C53.6719 43.3041 51.2719 45.7121 48.3119 45.7121ZM48.3119 30.9041C46.6799 30.9041 45.3519 32.2321 45.3519 33.8641V40.3601C45.3519 41.9921 46.6799 43.3201 48.3119 43.3201C49.9439 43.3201 51.2719 41.9921 51.2719 40.3601V33.8641C51.2719 32.2321 49.9439 30.9041 48.3119 30.9041Z" fill="#FAF285"/>
<path d="M56.632 45.7121C53.68 45.7121 51.272 43.3121 51.272 40.3521V33.8561C51.272 30.9041 53.672 28.4961 56.632 28.4961C59.592 28.4961 61.992 30.8961 61.992 33.8561V40.3521C61.992 43.3041 59.592 45.7121 56.632 45.7121ZM56.632 30.9041C55 30.9041 53.672 32.2321 53.672 33.8641V40.3601C53.672 41.9921 55 43.3201 56.632 43.3201C58.264 43.3201 59.592 41.9921 59.592 40.3601V33.8641C59.592 32.2321 58.264 30.9041 56.632 30.9041Z" fill="#FAF285"/>
</svg>
