<svg width="80" height="80" viewBox="0 0 80 80" fill="none" xmlns="http://www.w3.org/2000/svg">
<path d="M40 80C62.0914 80 80 62.0914 80 40C80 17.9086 62.0914 0 40 0C17.9086 0 0 17.9086 0 40C0 62.0914 17.9086 80 40 80Z" fill="#262626"/>
<path d="M40 2.4C60.736 2.4 77.6 19.264 77.6 40C77.6 60.736 60.736 77.6 40 77.6C19.264 77.6 2.4 60.736 2.4 40C2.4 19.264 19.264 2.4 40 2.4ZM40 0C17.912 0 0 17.912 0 40C0 62.088 17.912 80 40 80C62.088 80 80 62.088 80 40C80 17.912 62.088 0 40 0Z" fill="#FAF285"/>
<path d="M41.0961 59.344C40.5681 56.608 39.5201 54.552 37.9681 53.232C37.4161 52.76 36.7841 52.36 36.1681 51.976C34.6961 51.048 33.1681 50.088 32.6001 48.104C32.4241 47.48 32.3681 46.808 32.4321 46.112C32.4961 45.416 32.8561 44.776 33.4241 44.36L35.6401 42.752L37.0561 44.688L34.8401 46.296C34.7921 46.728 34.8161 47.104 34.9121 47.44C35.2161 48.48 36.0721 49.072 37.4561 49.944C38.1441 50.376 38.8561 50.824 39.5361 51.408C41.5121 53.096 42.8321 55.616 43.4641 58.896L41.1041 59.352L41.0961 59.344Z" fill="#FAF285"/>
<path d="M37.0398 44.6881L35.6318 42.7441L42.2638 37.9441C43.0158 36.8561 42.9758 35.3601 42.1438 34.3281C41.3438 33.3361 39.9998 32.9521 38.7838 33.3761C38.6798 33.4081 38.5918 33.4481 38.4958 33.4881L34.0478 36.7281C32.1038 38.1441 30.1678 39.5601 28.2238 40.9681L27.7758 40.3521H26.3198V39.3921L26.8158 39.0321C28.7598 37.6241 30.6958 36.2081 32.6318 34.7921L37.3678 31.3681C37.5838 31.2641 37.7998 31.1761 38.0078 31.1041C40.1598 30.3601 42.5758 31.0481 44.0078 32.8241C45.5838 34.7841 45.6078 37.5441 44.0638 39.5441L43.9598 39.6801L37.0318 44.6961L37.0398 44.6881Z" fill="#FAF285"/>
<path d="M40.696 67.896C37.392 67.896 30.088 67.12 24.936 60.88C20.48 55.472 20.352 49.232 20.672 46C20.84 44.288 21.736 42.728 23.136 41.704L24.96 40.376C25.576 39.928 26.2 39.48 26.816 39.024L28.232 40.96C27.616 41.416 26.992 41.864 26.368 42.32L24.552 43.64C23.704 44.256 23.16 45.2 23.064 46.232C22.784 49.096 22.888 54.616 26.784 59.352C31.864 65.504 39.416 65.592 41.608 65.472C51.952 64.888 58.008 54.712 59.96 48.792C62.224 41.912 60.392 35.984 59.512 33.136L59.464 32.976L61.76 32.272L61.808 32.432C62.688 35.28 64.736 41.944 62.24 49.544C60.104 56.04 53.376 67.216 41.744 67.872C41.464 67.888 41.112 67.896 40.696 67.896Z" fill="#FAF285"/>
<path d="M26.3198 42.352V13.608C26.3198 10.656 28.7278 8.24805 31.6798 8.24805C33.1118 8.24805 34.4638 8.80805 35.4718 9.81605C36.4798 10.824 37.0398 12.176 37.0398 13.608V34.544L34.0478 36.728C32.1038 38.144 30.1678 39.56 28.2238 40.968L26.3198 42.352ZM31.6878 10.648C30.0558 10.648 28.7278 11.976 28.7278 13.608V37.64C30.0318 36.688 31.3358 35.736 32.6398 34.784L34.6478 33.32V13.6C34.6478 12.808 34.3438 12.064 33.7838 11.504C33.2238 10.944 32.4798 10.64 31.6878 10.64V10.648Z" fill="#FAF285"/>
<path d="M39.584 46.4879C38.976 46.4879 38.36 46.3839 37.76 46.1679C36.832 45.8319 36.016 45.2479 35.4 44.4639L34.616 43.4799L42.264 37.9439C43.016 36.8559 42.976 35.3599 42.144 34.3279C41.344 33.3359 39.992 32.9519 38.784 33.3759L36.4 34.2079L43.68 14.1679C44.688 11.3919 47.768 9.95193 50.544 10.9599C52.656 11.7279 54.072 13.7519 54.072 15.9919C54.072 16.6159 53.968 17.2239 53.752 17.8159L49.008 30.8879L48.192 30.9119C46.592 30.9599 45.344 32.2559 45.344 33.8559V40.3519C45.344 40.4319 45.344 40.5119 45.36 40.5919L45.376 40.8479L45.288 41.1039L44.616 42.9679C43.824 45.1439 41.76 46.4959 39.568 46.4959L39.584 46.4879ZM38.288 43.7919C38.384 43.8399 38.48 43.8799 38.576 43.9119C40.112 44.4719 41.808 43.6719 42.368 42.1439L42.952 40.5119C42.952 40.5119 42.952 40.4399 42.952 40.4079L38.288 43.7839V43.7919ZM40.192 30.8239C41.312 30.9039 42.392 31.3359 43.264 32.0559C43.888 30.2959 45.408 28.9599 47.288 28.6079L51.496 16.9999C51.616 16.6719 51.672 16.3279 51.672 15.9839C51.672 14.7519 50.888 13.6319 49.728 13.2079C48.2 12.6559 46.496 13.4479 45.936 14.9759L40.184 30.8159L40.192 30.8239Z" fill="#FAF285"/>
<path d="M48.32 45.7121C45.544 45.7121 43.2 43.5441 42.976 40.7841C42.968 40.6241 42.96 40.4881 42.96 40.3521V33.8561C42.96 30.9681 45.208 28.6321 48.08 28.5121C48.16 28.5121 48.248 28.5042 48.32 28.5042C49.752 28.5042 51.096 29.0641 52.104 30.0721C53.112 31.0801 53.672 32.4241 53.672 33.8561V40.3521C53.672 43.3041 51.272 45.7121 48.32 45.7121ZM48.2 30.9121C46.6 30.9601 45.352 32.2561 45.352 33.8561V40.3521C45.352 40.4321 45.352 40.5122 45.368 40.5922C45.488 42.1202 46.784 43.3121 48.32 43.3121C49.944 43.3121 51.272 41.9841 51.272 40.3521V33.8561C51.272 33.0641 50.968 32.3281 50.408 31.7681C49.848 31.2081 49.112 30.9042 48.32 30.9042L48.24 30.9202H48.208L48.2 30.9121Z" fill="#FAF285"/>
<path d="M56.6242 45.7121C53.6722 45.7121 51.2642 43.3041 51.2642 40.3521V33.8561C51.2642 30.9041 53.6722 28.5042 56.6242 28.5042C58.0562 28.5042 59.4082 29.0641 60.4162 30.0721C61.4242 31.0801 61.9842 32.4241 61.9842 33.8561V40.3521C61.9842 43.3041 59.5762 45.7121 56.6242 45.7121ZM56.6242 30.9042C54.9922 30.9042 53.6642 32.2321 53.6642 33.8561V40.3521C53.6642 41.9841 54.9922 43.3121 56.6242 43.3121C58.2562 43.3121 59.5842 41.9841 59.5842 40.3521V33.8561C59.5842 33.0641 59.2802 32.3281 58.7202 31.7681C58.1602 31.2081 57.4162 30.9042 56.6242 30.9042Z" fill="#FAF285"/>
</svg>
