<svg width="80" height="80" viewBox="0 0 80 80" fill="none" xmlns="http://www.w3.org/2000/svg">
<path d="M40 80C62.0914 80 80 62.0914 80 40C80 17.9086 62.0914 0 40 0C17.9086 0 0 17.9086 0 40C0 62.0914 17.9086 80 40 80Z" fill="#262626"/>
<path d="M40 2.4C60.736 2.4 77.6 19.264 77.6 40C77.6 60.736 60.736 77.6 40 77.6C19.264 77.6 2.4 60.736 2.4 40C2.4 19.264 19.264 2.4 40 2.4ZM40 0C17.912 0 0 17.912 0 40C0 62.088 17.912 80 40 80C62.088 80 80 62.088 80 40C80 17.912 62.088 0 40 0Z" fill="#FAF285"/>
<path d="M41.0961 59.344C40.5681 56.608 39.5201 54.552 37.9681 53.232C37.4161 52.76 36.7841 52.36 36.1681 51.976C34.6961 51.048 33.1681 50.088 32.6001 48.104C32.4241 47.48 32.3681 46.808 32.4321 46.112C32.4961 45.416 32.8561 44.776 33.4241 44.36L36.3041 42.272L37.7121 44.216L34.8321 46.304C34.7841 46.736 34.8161 47.112 34.9041 47.448C35.2081 48.488 36.0641 49.08 37.4481 49.952C38.1361 50.384 38.8481 50.832 39.5281 51.416C41.5041 53.104 42.8241 55.624 43.4561 58.904L41.0961 59.36V59.344Z" fill="#FAF285"/>
<path d="M40.696 67.8962C37.392 67.8962 30.088 67.1202 24.936 60.8802C20.48 55.4722 20.352 49.2322 20.672 46.0002C20.84 44.2882 21.736 42.7282 23.136 41.7042C24.336 40.8322 25.536 39.9602 26.736 39.0802L28.152 41.0162C26.952 41.8962 25.752 42.7682 24.544 43.6402C23.704 44.2562 23.16 45.2002 23.056 46.2242C22.776 49.0882 22.88 54.6082 26.776 59.3442C31.856 65.4962 39.408 65.5842 41.6 65.4642C51.944 64.8802 58 54.7042 59.952 48.7842C62.216 41.9042 60.384 35.9762 59.504 33.1282L59.456 32.9682L61.752 32.2642L61.8 32.4242C62.68 35.2722 64.728 41.9362 62.232 49.5362C60.096 56.0322 53.368 67.2082 41.736 67.8642C41.456 67.8802 41.104 67.8882 40.688 67.8882L40.696 67.8962Z" fill="#FAF285"/>
<path d="M37.7119 44.208L36.3039 42.264L42.2719 37.944C43.0239 36.856 42.9839 35.36 42.1519 34.328C41.2879 33.248 39.7679 32.904 38.5119 33.48L28.1519 41.024L26.7439 39.08L37.3599 31.368C39.6319 30.232 42.4399 30.84 44.0239 32.816C45.5999 34.776 45.6239 37.536 44.0799 39.536L43.9759 39.672L37.7199 44.208H37.7119Z" fill="#FAF285"/>
<path d="M56.6242 45.7121C53.7762 45.7121 51.3922 43.4161 51.2722 40.5841C51.2642 40.5041 51.2642 40.4321 51.2642 40.3521V33.8561C51.2642 32.1521 52.0882 30.5281 53.4722 29.5281C54.3762 28.8561 55.4722 28.5042 56.6242 28.5042C58.0562 28.5042 59.4082 29.0641 60.4162 30.0721C61.4242 31.0801 61.9842 32.4241 61.9842 33.8561V40.3521C61.9842 43.3041 59.5762 45.7121 56.6242 45.7121ZM56.6242 30.9042C55.9922 30.9042 55.3922 31.0961 54.8882 31.4721C54.1042 32.0401 53.6642 32.9041 53.6642 33.8561V40.4561C53.7202 42.0321 55.0402 43.3121 56.6242 43.3121C58.2082 43.3121 59.5842 41.9841 59.5842 40.3521V33.8561C59.5842 33.0641 59.2802 32.3281 58.7202 31.7681C58.1602 31.2081 57.4162 30.9042 56.6242 30.9042Z" fill="#FAF285"/>
<path d="M48.336 45.5201C48.032 45.5201 47.72 45.4961 47.408 45.4401C44.832 45.0001 42.96 42.7841 42.96 40.1601C42.96 39.8481 42.984 39.5441 43.032 39.2641L47.544 12.8961C47.784 11.4881 48.56 10.2561 49.728 9.42405C50.896 8.60005 52.32 8.27205 53.728 8.51205C56.312 8.96005 58.184 11.1761 58.184 13.7841C58.184 14.0641 58.16 14.3761 58.104 14.6961L55.288 31.1921L54.888 31.4801C54.12 32.0401 53.672 32.9041 53.672 33.8561L53.704 40.5521L53.664 40.6961L53.6 41.0721C53.36 42.4801 52.584 43.7121 51.416 44.5441C50.504 45.1921 49.432 45.5281 48.336 45.5281V45.5201ZM52.824 10.8401C52.216 10.8401 51.624 11.0241 51.12 11.3841C50.472 11.8401 50.048 12.5201 49.912 13.2961L45.4 39.6641C45.376 39.8081 45.36 39.9841 45.36 40.1601C45.36 41.6081 46.392 42.8321 47.816 43.0721C48.6 43.2081 49.384 43.0321 50.032 42.5761C50.68 42.1201 51.104 41.4401 51.232 40.6641L51.272 40.4321C51.272 40.4321 51.272 40.3841 51.272 40.3601V33.8641C51.272 32.3281 51.936 30.8721 53.08 29.8641L55.736 14.3041C55.768 14.1201 55.784 13.9441 55.784 13.7921C55.784 12.3601 54.752 11.1361 53.32 10.8881C53.152 10.8561 52.984 10.8481 52.824 10.8481V10.8401Z" fill="#FAF285"/>
<path d="M39.9999 45.712C38.5359 45.712 37.1679 45.128 36.1439 44.072L35.1839 43.08L42.2719 37.944C43.0239 36.856 42.9839 35.36 42.1519 34.328C41.2879 33.248 39.7679 32.904 38.5119 33.48L34.6479 36.296V13.608C34.6479 10.656 37.0479 8.24805 39.9999 8.24805C41.4239 8.24805 42.7679 8.80005 43.7839 9.80805C44.7999 10.824 45.3599 12.168 45.3599 13.608V40.352C45.3599 43.304 42.9519 45.712 39.9999 45.712ZM39.1279 43.184C39.4079 43.272 39.6959 43.312 39.9919 43.312C41.6079 43.312 42.9199 42.016 42.9519 40.408L39.1279 43.176V43.184ZM39.7759 30.808C40.9119 30.808 42.0239 31.16 42.9599 31.824V13.608C42.9599 12.816 42.6559 12.072 42.0959 11.512C41.5359 10.96 40.7919 10.648 39.9999 10.648C38.3759 10.648 37.0479 11.976 37.0479 13.608V31.584L37.3599 31.376C38.1279 30.992 38.9599 30.808 39.7759 30.808Z" fill="#FAF285"/>
<path d="M26.5919 42.16L21.7519 14.736C21.5039 13.328 21.8159 11.912 22.6319 10.736C23.4479 9.56 24.6799 8.776 26.0879 8.528C26.4399 8.472 26.7359 8.448 27.0239 8.448C29.6159 8.448 31.8319 10.312 32.2959 12.88L36.2319 35.144L26.5839 42.16H26.5919ZM27.0399 10.848C26.8799 10.848 26.7039 10.864 26.5039 10.896C25.7439 11.032 25.0639 11.464 24.6159 12.112C24.1679 12.76 23.9919 13.544 24.1279 14.32L28.2959 37.96L33.6239 34.08L29.9439 13.296C29.6879 11.88 28.4719 10.848 27.0399 10.848Z" fill="#FAF285"/>
</svg>
