<svg width="80" height="80" viewBox="0 0 80 80" fill="none" xmlns="http://www.w3.org/2000/svg">
<path d="M40 2.4C60.736 2.4 77.6 19.264 77.6 40C77.6 60.736 60.736 77.6 40 77.6C19.264 77.6 2.4 60.736 2.4 40C2.4 19.264 19.264 2.4 40 2.4ZM40 0C17.912 0 0 17.912 0 40C0 62.088 17.912 80 40 80C62.088 80 80 62.088 80 40C80 17.912 62.088 0 40 0Z" fill="#F37F81"/>
<path d="M40 80C62.0914 80 80 62.0914 80 40C80 17.9086 62.0914 0 40 0C17.9086 0 0 17.9086 0 40C0 62.0914 17.9086 80 40 80Z" fill="#262626"/>
<path d="M40 2.4C60.736 2.4 77.6 19.264 77.6 40C77.6 60.736 60.736 77.6 40 77.6C19.264 77.6 2.4 60.736 2.4 40C2.4 19.264 19.264 2.4 40 2.4ZM40 0C17.912 0 0 17.912 0 40C0 62.088 17.912 80 40 80C62.088 80 80 62.088 80 40C80 17.912 62.088 0 40 0Z" fill="#F37F81"/>
<path d="M38.6877 63.6964C35.3837 63.6964 28.0797 62.9204 22.9277 56.6804C18.4797 51.2804 18.3437 45.0404 18.6637 41.8004C18.8317 40.0884 19.7277 38.5284 21.1277 37.5124C21.7437 37.0644 22.3677 36.6084 22.9837 36.1604C23.5917 35.7204 24.1997 35.2804 24.7997 34.8404L26.2157 36.7764C25.6077 37.2244 24.9997 37.6644 24.3917 38.1044C23.7757 38.5524 23.1517 39.0004 22.5357 39.4564C21.6877 40.0724 21.1437 41.0164 21.0477 42.0484C20.7677 44.9124 20.8717 50.4324 24.7757 55.1684C29.8557 61.3204 37.4077 61.4084 39.5997 61.2884C49.9437 60.7044 55.9997 50.5284 57.9517 44.6084C60.2157 37.7284 58.3837 31.8004 57.5037 28.9524L57.4557 28.7924L59.7517 28.0884L59.7997 28.2484C60.6797 31.0964 62.7277 37.7604 60.2317 45.3604C58.0957 51.8564 51.3677 63.0324 39.7357 63.6884C39.4557 63.7044 39.1037 63.7124 38.6877 63.7124V63.6964Z" fill="#F37F81"/>
<path d="M37.9919 41.512C36.5279 41.512 35.1599 40.928 34.1359 39.872L33.1759 38.88L40.2639 33.744C41.0159 32.656 40.9759 31.16 40.1439 30.128C39.2799 29.048 37.7679 28.704 36.5039 29.28L32.6399 32.096V29.656C32.6399 26.704 35.0399 24.304 37.9919 24.304C39.4159 24.304 40.7599 24.856 41.7759 25.864C42.7919 26.88 43.3519 28.224 43.3519 29.656V36.152C43.3519 39.104 40.9439 41.512 37.9919 41.512ZM37.1279 38.984C37.4079 39.072 37.6959 39.112 37.9919 39.112C39.6079 39.112 40.9199 37.816 40.9519 36.208L37.1279 38.976V38.984Z" fill="#F37F81"/>
<path d="M35.7038 40.0078L34.2958 38.0638L40.2638 33.7438C41.0158 32.6558 40.9758 31.1598 40.1438 30.1278C39.2798 29.0478 37.7678 28.7038 36.5038 29.2798L31.9278 32.6078C30.0238 33.9918 28.1278 35.3838 26.2238 36.7678L25.7758 36.1518H24.3198V35.1918L24.8158 34.8318C26.7198 33.4478 28.6158 32.0638 30.5198 30.6798L35.3598 27.1758C37.6398 26.0398 40.4398 26.6558 42.0238 28.6238C43.5998 30.5838 43.6238 33.3438 42.0798 35.3438L41.9758 35.4798L35.7118 40.0158L35.7038 40.0078Z" fill="#F37F81"/>
<path d="M39.0958 55.1438C38.5678 52.4078 37.5118 50.3518 35.9678 49.0318C35.4158 48.5598 34.7838 48.1598 34.1678 47.7758C32.6958 46.8478 31.1678 45.8878 30.5998 43.9038C30.4238 43.2798 30.3679 42.6078 30.4319 41.9118C30.4959 41.2078 30.8559 40.5678 31.4319 40.1598L34.3118 38.0718L35.7199 40.0158L32.8398 42.1038C32.7918 42.5358 32.8158 42.9118 32.9118 43.2478C33.2158 44.2878 34.0718 44.8798 35.4558 45.7438C36.1438 46.1758 36.8558 46.6238 37.5358 47.2078C39.5118 48.8958 40.8319 51.4158 41.4639 54.6958L39.1039 55.1518L39.0958 55.1438Z" fill="#F37F81"/>
<path d="M54.6237 41.5124C51.6717 41.5124 49.2637 39.1124 49.2637 36.1524V29.6564C49.2637 26.7044 51.6637 24.2964 54.6237 24.2964C57.5837 24.2964 59.9837 26.6964 59.9837 29.6564V36.1524C59.9837 39.1044 57.5837 41.5124 54.6237 41.5124ZM54.6237 26.6964C52.9917 26.6964 51.6637 28.0244 51.6637 29.6564V36.1524C51.6637 37.7844 52.9917 39.1124 54.6237 39.1124C56.2557 39.1124 57.5837 37.7844 57.5837 36.1524V29.6564C57.5837 28.0244 56.2557 26.6964 54.6237 26.6964Z" fill="#F37F81"/>
<path d="M24.3198 38.152V29.656C24.3198 26.704 26.7278 24.304 29.6798 24.304C31.1118 24.304 32.4638 24.864 33.4718 25.872C34.4798 26.88 35.0398 28.224 35.0398 29.656V30.344L31.9278 32.608C30.0238 33.992 28.1278 35.384 26.2238 36.768L24.3198 38.152ZM29.6798 26.704C28.0478 26.704 26.7198 28.032 26.7198 29.656V33.44C27.9838 32.52 29.2478 31.592 30.5118 30.672L32.5918 29.152C32.4878 28.552 32.2078 28 31.7678 27.568C31.2078 27.008 30.4638 26.704 29.6718 26.704H29.6798Z" fill="#F37F81"/>
<path d="M46.3119 41.512C43.3599 41.512 40.9519 39.104 40.9519 36.152V29.656C40.9519 26.704 43.3599 24.304 46.3119 24.304C47.7439 24.304 49.0879 24.864 50.0959 25.872C51.1039 26.88 51.6639 28.224 51.6639 29.656V36.152C51.6639 39.104 49.2639 41.512 46.3119 41.512ZM46.3119 26.704C44.6799 26.704 43.3519 28.032 43.3519 29.656V36.152C43.3519 37.784 44.6799 39.112 46.3119 39.112C47.9439 39.112 49.2639 37.784 49.2639 36.152V29.656C49.2639 28.864 48.9599 28.128 48.3999 27.568C47.8399 27.008 47.1039 26.704 46.3119 26.704Z" fill="#F37F81"/>
</svg>
