<svg width="80" height="80" viewBox="0 0 80 80" fill="none" xmlns="http://www.w3.org/2000/svg">
<path d="M40 80C62.0914 80 80 62.0914 80 40C80 17.9086 62.0914 0 40 0C17.9086 0 0 17.9086 0 40C0 62.0914 17.9086 80 40 80Z" fill="#262626"/>
<path d="M40 2.4C60.736 2.4 77.6 19.264 77.6 40C77.6 60.736 60.736 77.6 40 77.6C19.264 77.6 2.4 60.736 2.4 40C2.4 19.264 19.264 2.4 40 2.4ZM40 0C17.912 0 0 17.912 0 40C0 62.088 17.912 80 40 80C62.088 80 80 62.088 80 40C80 17.912 62.088 0 40 0Z" fill="#7A7BBB"/>
<path d="M62.7758 36.8081H36.0318V34.4081H62.7758C63.5678 34.4081 64.3118 34.1041 64.8718 33.5441C65.4318 32.9841 65.7358 32.2401 65.7358 31.4481C65.7358 29.8161 64.4078 28.4881 62.7758 28.4881H36.0318C35.7598 28.4881 35.4638 28.5281 35.1678 28.6161L34.5278 26.3041C35.0318 26.1601 35.5438 26.0881 36.0318 26.0881H62.7758C65.7278 26.0881 68.1358 28.4961 68.1358 31.4481C68.1358 32.8801 67.5758 34.2321 66.5678 35.2401C65.5598 36.2481 64.2078 36.8081 62.7758 36.8081Z" fill="#7A7BBB"/>
<path d="M34.4321 63.216C32.1121 63.216 29.5521 62.896 26.8401 62C18.1201 59.128 9.06406 51.68 8.51206 41.496C8.46406 40.616 8.48006 39.72 8.55206 38.84C9.15206 31.888 13.6321 25.776 20.2561 22.896C24.4961 21.048 28.9121 18.96 33.1841 16.944C35.5601 15.816 37.9361 14.696 40.3041 13.6C42.5041 12.64 45.2721 12.104 47.3761 16.408C49.5521 20.864 46.6081 22.68 44.6561 23.888L44.4721 24L35.3841 28.536C34.7921 28.832 34.0721 28.592 33.7761 28C33.4801 27.408 33.7201 26.6881 34.3121 26.3921L43.4001 21.856C45.5121 20.552 46.4001 19.872 45.2241 17.472C43.9521 14.864 42.8881 15.104 41.2881 15.8C38.9521 16.88 36.5841 18 34.2161 19.12C29.9281 21.152 25.4961 23.248 21.2161 25.104C15.4081 27.632 11.4721 32.976 10.9441 39.056C10.8801 39.824 10.8641 40.608 10.9041 41.3761C11.4721 51.7201 21.6561 57.7761 27.5841 59.7281C34.4321 61.9841 40.3601 60.16 43.2081 59.2881L43.3921 59.2321C44.0241 59.0401 44.6961 59.3921 44.8881 60.0321C45.0801 60.6641 44.7281 61.3361 44.0881 61.5281L43.9041 61.5841C41.9201 62.1921 38.5681 63.224 34.4161 63.224L34.4321 63.216Z" fill="#7A7BBB"/>
<path d="M42.5198 61.7517H36.0238C33.0718 61.7517 30.6638 59.3517 30.6638 56.3917C30.6638 53.4317 33.0638 51.0317 36.0238 51.0317H42.5198C45.4718 51.0317 47.8798 53.4317 47.8798 56.3917C47.8798 59.3517 45.4798 61.7517 42.5198 61.7517ZM36.0238 53.4317C34.3918 53.4317 33.0638 54.7597 33.0638 56.3917C33.0638 58.0237 34.3918 59.3517 36.0238 59.3517H42.5198C44.1518 59.3517 45.4798 58.0237 45.4798 56.3917C45.4798 54.7597 44.1518 53.4317 42.5198 53.4317H36.0238Z" fill="#7A7BBB"/>
<path d="M42.5198 53.4322H36.0238C33.0718 53.4322 30.6638 51.0322 30.6638 48.0722C30.6638 45.1122 33.0638 42.7122 36.0238 42.7122H42.5198C45.4718 42.7122 47.8798 45.1122 47.8798 48.0722C47.8798 51.0322 45.4798 53.4322 42.5198 53.4322ZM36.0318 45.1202C34.3998 45.1202 33.0718 46.4482 33.0718 48.0802C33.0718 49.7122 34.3998 51.0402 36.0318 51.0402H42.5278C44.1598 51.0402 45.4878 49.7122 45.4878 48.0802C45.4878 46.4482 44.1598 45.1202 42.5278 45.1202H36.0318Z" fill="#7A7BBB"/>
<path d="M42.5281 45.12H36.0321C33.0801 45.12 30.6721 42.712 30.6721 39.76C30.6721 36.808 33.0801 34.408 36.0321 34.408H42.5281C45.4801 34.408 47.8801 36.808 47.8801 39.76C47.8801 41.184 47.3281 42.528 46.3201 43.544C45.3041 44.56 43.9601 45.112 42.5281 45.112V45.12ZM36.0321 36.808C34.4001 36.808 33.0721 38.136 33.0721 39.76C33.0721 41.384 34.4001 42.72 36.0321 42.72H42.5281C43.3201 42.72 44.0561 42.416 44.6161 41.856C45.1761 41.296 45.4801 40.552 45.4801 39.76C45.4801 38.136 44.1521 36.808 42.5281 36.808H36.0321Z" fill="#7A7BBB"/>
</svg>
